<svg width="42" height="29" viewBox="0 0 42 29" fill="none" xmlns="http://www.w3.org/2000/svg">
<path d="M34.7507 0.818359H20.8152V3.80435L17.8926 5.25238H20.8152V9.68639H17.8926L20.8152 11.2035V14.1204H20.6936L12.5806 10.0988V14.1204H8.78001V10.0988L0.693633 14.1204H0.54541V21.7216C0.54541 25.5697 2.68197 28.6893 6.87972 28.6893H34.7507C38.9484 28.6893 41.085 25.5697 41.085 21.7216V7.7861C41.085 3.93801 38.9484 0.818359 34.7507 0.818359Z" fill="#2B3990"/>
<path d="M20.8152 2.30285V2.28638L15.0066 5.2521L20.8152 2.30285Z" fill="#4189DD"/>
<path d="M0.54541 9.68628V11.2268L3.51367 9.68628H0.54541Z" fill="#2B3990"/>
<path d="M1.31316 4.16235C1.14467 4.51351 1.00527 4.8779 0.896362 5.25185H3.5137L1.31316 4.16235Z" fill="#2B3990"/>
<path d="M20.8153 0.824694V0.818359H12.5807V5.06171L20.8153 0.824694Z" fill="#2B3990"/>
<path d="M8.77987 5.06171V0.818359H6.87958C5.21999 0.818359 3.88789 1.31117 2.87756 2.13906L8.77987 5.06171Z" fill="#2B3990"/>
<path d="M20.8152 5.88581V5.25238H17.8925L20.8152 3.80435V2.30312L15.0066 5.25238H13.0823L20.8152 1.3042V0.824694L12.5806 5.06171V0.818359H11.9471V5.88581H20.8152Z" fill="white"/>
<path d="M11.9471 14.1204H12.5806V10.0988L20.6936 14.1204H20.8152V12.6762L15.0066 9.68641H16.9316L20.8152 11.6944V11.2035L17.8925 9.68641H20.8152V9.05298H11.9471V14.1204Z" fill="white"/>
<path d="M8.78001 10.0988V14.1204H9.41344V9.05298H0.54541V9.68641H3.51367L0.54541 11.2269V12.6825L6.39958 9.68641H8.32521L0.54541 13.6644V14.1204H0.693633L8.78001 10.0988Z" fill="white"/>
<path d="M2.87762 2.14199C2.54444 2.415 2.24736 2.72475 1.98512 3.06617L6.3995 5.25531H4.4745L1.50054 3.79715C1.43439 3.91814 1.37186 4.04108 1.31305 4.1658L3.51359 5.25531H0.89625C0.83544 5.4618 0.782866 5.67274 0.738525 5.88874H9.41337V0.821289H8.77993V5.06464L2.87762 2.14199Z" fill="white"/>
<path d="M9.41345 14.1204H11.9472V9.05296H20.8152V6.09674L11.9472 6.51924V0.818359H9.41345V6.51924L0.689832 6.14488C0.594144 6.68673 0.545821 7.23587 0.54541 7.7861L0.54541 9.05296H9.41345V14.1204Z" fill="#FF0000"/>
<path d="M11.9471 6.51893L20.8152 6.09643V5.8855H11.9471V6.51893Z" fill="#FF0000"/>
<path d="M0.689697 6.14457L9.41331 6.51893V5.8855H0.738471C0.720102 5.97101 0.7049 6.05716 0.689697 6.14457Z" fill="#FF0000"/>
<path d="M6.39971 5.25219L1.9809 3.06812C1.80378 3.29849 1.64312 3.54106 1.50012 3.79403L4.47471 5.25219H6.39971Z" fill="#FF0000"/>
<path d="M1.98461 3.06323L1.98145 3.0683L6.39963 5.25237L1.98461 3.06323Z" fill="#FF0000"/>
<path d="M15.0066 5.25237L20.8152 2.28665V1.3042L13.0823 5.25237H15.0066Z" fill="#FF0000"/>
<path d="M15.0066 9.68628L20.8152 12.652V11.6943L16.9316 9.68628H15.0066Z" fill="#FF0000"/>
<path d="M20.8152 12.6761V12.652L15.0066 9.68628L20.8152 12.6761Z" fill="#FF0000"/>
<path d="M6.39958 9.68628L0.54541 12.697V13.6642L8.32521 9.68628H6.39958Z" fill="#FF0000"/>
<path d="M0.54541 12.6824V12.697L6.39958 9.68628L0.54541 12.6824Z" fill="#FF0000"/>
<path d="M9.88411 20.0492L10.6803 17.6174L11.4588 20.0492L13.8241 19.137L12.4261 21.2527L14.6266 22.5512L12.0802 22.7729L12.4267 25.3035L10.681 23.457L8.92447 25.3035L9.26399 22.7729L6.73596 22.5639L8.9175 21.259L7.51192 19.137L9.88411 20.0492Z" fill="white"/>
<path d="M30.2894 20.9023L30.6017 19.9414L30.9108 20.9023L31.8432 20.5432L31.2934 21.3793L32.1624 21.8924L31.1591 21.9811L31.2934 22.9787L30.6017 22.2496L29.9112 22.9787L30.0436 21.9811L29.0447 21.8924L29.9049 21.3793L29.3538 20.5432L30.2894 20.9023Z" fill="white"/>
<path d="M24.9306 12.4459L25.2448 11.4856L25.5526 12.4459L26.4869 12.0861L25.9333 12.9229L26.8037 13.4359L25.7978 13.5246L25.9333 14.5229L25.2448 13.7932L24.5505 14.5229L24.6855 13.5246L23.6859 13.4385L24.5486 12.9229L23.995 12.0861L24.9306 12.4459Z" fill="white"/>
<path d="M35.0547 11.0288L35.3677 10.0679L35.6755 11.0288L36.6098 10.6684L36.0556 11.5051L36.9297 12.0182L35.9206 12.105L36.0556 13.1045L35.3677 12.378L34.6734 13.1045L34.8077 12.105L33.8069 12.0207L34.6709 11.5077L34.1154 10.6684L35.0547 11.0288Z" fill="white"/>
<path d="M32.9011 15.1362L33.0532 14.6567L33.209 15.1362L33.6739 14.9564L33.4003 15.3744L33.8323 15.631L33.3325 15.674L33.4003 16.1725L33.0532 15.8096L32.7092 16.1725L32.7764 15.674L32.274 15.6322L32.7079 15.3757L32.4324 14.9564L32.9011 15.1362Z" fill="white"/>
<path d="M30.2894 6.61409L30.6017 5.65381L30.9108 6.61409L31.8432 6.2543L31.2934 7.09106L32.1624 7.60414L31.1591 7.69092L31.2934 8.69111L30.6017 7.9614L29.9112 8.69111L30.0436 7.69092L29.0447 7.60668L29.9049 7.0936L29.3538 6.2543L30.2894 6.61409Z" fill="white"/>
</svg>
