<svg width="452" height="362" viewBox="0 0 452 362" fill="none" xmlns="http://www.w3.org/2000/svg">
<path d="M226.476 308.016C195.851 308.016 166.172 297.391 142.499 277.952C118.825 258.513 102.62 231.463 96.6453 201.409C90.6706 171.356 95.2957 140.16 109.733 113.136C124.169 86.1127 147.525 64.9335 175.819 53.2074C204.113 41.4813 235.596 39.9338 264.903 48.8287C294.21 57.7236 319.528 76.5105 336.542 101.988C353.557 127.466 361.216 158.059 358.214 188.553C355.212 219.047 341.735 247.557 320.08 269.224C307.816 281.561 293.228 291.342 277.161 298.001C261.094 304.66 243.867 308.064 226.476 308.016ZM226.476 44.1435C154.046 44.1435 95.119 103.102 95.119 175.571C95.119 248.04 154.046 306.998 226.476 306.998C298.907 306.998 357.833 248.04 357.833 175.571C357.833 103.102 298.907 44.1435 226.476 44.1435Z" fill="#CCCCCC"/>
<path d="M275.628 327.878V194.447H176.372V327.878H275.628Z" fill="#BEBEBE"/>
<path d="M292.68 190.373H159.32V243.338H292.68V190.373Z" fill="#EBEBEB"/>
<path d="M292.68 249.449H159.32V302.414H292.68V249.449Z" fill="#EBEBEB"/>
<path d="M292.68 308.526H159.32V361.491H292.68V308.526Z" fill="#EBEBEB"/>
<path d="M292.68 212.83H159.32V220.979H292.68V212.83Z" fill="#BF0A0A"/>
<path d="M292.68 271.907H159.32V280.055H292.68V271.907Z" fill="#BF0A0A"/>
<path d="M292.68 330.983H159.32V339.132H292.68V330.983Z" fill="#BF0A0A"/>
<path d="M266.721 201.068C268.407 201.068 269.775 199.7 269.775 198.012C269.775 196.324 268.407 194.956 266.721 194.956C265.034 194.956 263.667 196.324 263.667 198.012C263.667 199.7 265.034 201.068 266.721 201.068Z" fill="#BF0A0A"/>
<path d="M277.41 201.068C279.097 201.068 280.464 199.7 280.464 198.012C280.464 196.324 279.097 194.956 277.41 194.956C275.723 194.956 274.356 196.324 274.356 198.012C274.356 199.7 275.723 201.068 277.41 201.068Z" fill="#BF0A0A"/>
<path d="M288.099 201.068C289.786 201.068 291.153 199.7 291.153 198.012C291.153 196.324 289.786 194.956 288.099 194.956C286.412 194.956 285.045 196.324 285.045 198.012C285.045 199.7 286.412 201.068 288.099 201.068Z" fill="#BF0A0A"/>
<path d="M266.721 259.126C268.407 259.126 269.775 257.757 269.775 256.07C269.775 254.382 268.407 253.014 266.721 253.014C265.034 253.014 263.667 254.382 263.667 256.07C263.667 257.757 265.034 259.126 266.721 259.126Z" fill="#BF0A0A"/>
<path d="M277.41 259.126C279.097 259.126 280.464 257.757 280.464 256.07C280.464 254.382 279.097 253.014 277.41 253.014C275.723 253.014 274.356 254.382 274.356 256.07C274.356 257.757 275.723 259.126 277.41 259.126Z" fill="#BF0A0A"/>
<path d="M288.099 259.126C289.786 259.126 291.153 257.757 291.153 256.07C291.153 254.382 289.786 253.014 288.099 253.014C286.412 253.014 285.045 254.382 285.045 256.07C285.045 257.757 286.412 259.126 288.099 259.126Z" fill="#BF0A0A"/>
<path d="M266.721 317.184C268.407 317.184 269.775 315.815 269.775 314.128C269.775 312.44 268.407 311.072 266.721 311.072C265.034 311.072 263.667 312.44 263.667 314.128C263.667 315.815 265.034 317.184 266.721 317.184Z" fill="#BF0A0A"/>
<path d="M277.41 317.184C279.097 317.184 280.464 315.815 280.464 314.128C280.464 312.44 279.097 311.072 277.41 311.072C275.723 311.072 274.356 312.44 274.356 314.128C274.356 315.815 275.723 317.184 277.41 317.184Z" fill="#BF0A0A"/>
<path d="M288.099 317.184C289.786 317.184 291.153 315.815 291.153 314.128C291.153 312.44 289.786 311.072 288.099 311.072C286.412 311.072 285.045 312.44 285.045 314.128C285.045 315.815 286.412 317.184 288.099 317.184Z" fill="#BF0A0A"/>
<path d="M452 360.981H0V362H452V360.981Z" fill="#3F3D56"/>
<path d="M123.119 138.048V232.77C123.118 234.751 122.331 236.652 120.931 238.053C119.53 239.454 117.631 240.242 115.65 240.242H78.8599C76.8788 240.242 74.9787 239.455 73.5776 238.054C72.1764 236.653 71.389 234.752 71.3884 232.77V138.048C71.389 136.066 72.1764 134.165 73.5776 132.764C74.9787 131.362 76.8788 130.575 78.8599 130.576H83.3228C83.1036 131.115 83.0203 131.7 83.0799 132.279C83.1396 132.858 83.3405 133.413 83.6649 133.896C83.9894 134.379 84.4275 134.775 84.9408 135.049C85.454 135.323 86.0267 135.467 86.6085 135.468H107.584C108.166 135.467 108.738 135.323 109.252 135.049C109.765 134.775 110.203 134.379 110.527 133.896C110.852 133.413 111.053 132.858 111.113 132.279C111.172 131.7 111.089 131.115 110.87 130.576H115.65C117.631 130.576 119.53 131.363 120.931 132.765C122.331 134.166 123.118 136.066 123.119 138.048Z" fill="#E6E6E6"/>
<path d="M120.668 148.664H73.8389V213.852H120.668V148.664Z" fill="white"/>
<path d="M105.826 193.489H87.135V194.558H105.826V193.489Z" fill="#E6E6E6"/>
<path d="M116.037 197.413H87.1162V198.482H116.037V197.413Z" fill="#BF0A0A"/>
<path d="M109.812 201.11H87.1162V202.178H109.812V201.11Z" fill="#E6E6E6"/>
<path d="M100.467 204.806H87.1162V205.875H100.467V204.806Z" fill="#E6E6E6"/>
<path d="M107.142 208.503H87.1162V209.572H107.142V208.503Z" fill="#E6E6E6"/>
<path d="M80.7948 193.182H78.6587V195.319H80.7948V193.182Z" fill="#E6E6E6"/>
<path d="M80.7948 196.879H78.6587V199.016H80.7948V196.879Z" fill="#BF0A0A"/>
<path d="M80.7948 200.575H78.6587V202.713H80.7948V200.575Z" fill="#E6E6E6"/>
<path d="M80.7948 204.272H78.6587V206.409H80.7948V204.272Z" fill="#E6E6E6"/>
<path d="M80.7948 207.969H78.6587V210.106H80.7948V207.969Z" fill="#E6E6E6"/>
<path d="M106.764 156.812H87.9316V175.655H106.764V156.812Z" fill="#E6E6E6"/>
<path d="M288.605 0.0709229H163.448V80.2698H288.605V0.0709229Z" fill="#E6E6E6"/>
<path d="M276.651 22.5078H172.883V61.7403H276.651V22.5078Z" fill="white"/>
<path d="M216.693 29.3049H191.789V30.7288H216.693V29.3049Z" fill="#E6E6E6"/>
<path d="M230.299 34.533H191.764V35.9568H230.299V34.533Z" fill="#BF0A0A"/>
<path d="M222.005 39.4585H191.764V40.8824H222.005V39.4585Z" fill="#E6E6E6"/>
<path d="M209.553 44.384H191.764V45.8079H209.553V44.384Z" fill="#E6E6E6"/>
<path d="M218.447 49.3096H191.764V50.7334H218.447V49.3096Z" fill="#E6E6E6"/>
<path d="M183.341 28.8954H180.495V31.7431H183.341V28.8954Z" fill="#E6E6E6"/>
<path d="M183.341 33.821H180.495V36.6688H183.341V33.821Z" fill="#BF0A0A"/>
<path d="M183.341 38.7466H180.495V41.5943H183.341V38.7466Z" fill="#E6E6E6"/>
<path d="M183.341 43.6721H180.495V46.5198H183.341V43.6721Z" fill="#E6E6E6"/>
<path d="M183.341 48.5977H180.495V51.4454H183.341V48.5977Z" fill="#E6E6E6"/>
<path d="M271.558 27.4235H246.078V52.9174H271.558V27.4235Z" fill="#E6E6E6"/>
<path d="M288.552 0H163.395V5.31996H288.552V0Z" fill="#BF0A0A"/>
<path d="M167.346 3.78776C167.936 3.78776 168.413 3.30965 168.413 2.71987C168.413 2.13009 167.936 1.65198 167.346 1.65198C166.757 1.65198 166.279 2.13009 166.279 2.71987C166.279 3.30965 166.757 3.78776 167.346 3.78776Z" fill="white"/>
<path d="M171.087 3.78776C171.676 3.78776 172.154 3.30965 172.154 2.71987C172.154 2.13009 171.676 1.65198 171.087 1.65198C170.497 1.65198 170.019 2.13009 170.019 2.71987C170.019 3.30965 170.497 3.78776 171.087 3.78776Z" fill="white"/>
<path d="M174.827 3.78776C175.417 3.78776 175.895 3.30965 175.895 2.71987C175.895 2.13009 175.417 1.65198 174.827 1.65198C174.238 1.65198 173.76 2.13009 173.76 2.71987C173.76 3.30965 174.238 3.78776 174.827 3.78776Z" fill="white"/>
<path d="M372.415 150.14H341.875V165.927H372.415V150.14Z" fill="#E6E6E6"/>
<path d="M372.415 206.67H341.875V222.457H372.415V206.67Z" fill="#E6E6E6"/>
<path d="M357.145 211.763C371.201 211.763 382.595 200.362 382.595 186.299C382.595 172.235 371.201 160.834 357.145 160.834C343.089 160.834 331.695 172.235 331.695 186.299C331.695 200.362 343.089 211.763 357.145 211.763Z" fill="#E6E6E6"/>
<path d="M357.145 206.16C368.109 206.16 376.996 197.268 376.996 186.298C376.996 175.329 368.109 166.437 357.145 166.437C346.181 166.437 337.294 175.329 337.294 186.298C337.294 197.268 346.181 206.16 357.145 206.16Z" fill="white"/>
<path d="M366.04 180.856H350.644V181.737H366.04V180.856Z" fill="#E2E2E2"/>
<path d="M374.451 184.089H350.629V184.969H374.451V184.089Z" fill="#BF0A0A"/>
<path d="M369.324 187.134H350.629V188.014H369.324V187.134Z" fill="#E2E2E2"/>
<path d="M361.626 190.178H350.629V191.059H361.626V190.178Z" fill="#E2E2E2"/>
<path d="M367.125 193.224H350.629V194.104H367.125V193.224Z" fill="#E2E2E2"/>
<path d="M345.422 180.603H343.662V182.364H345.422V180.603Z" fill="#E2E2E2"/>
<path d="M345.422 183.648H343.662V185.409H345.422V183.648Z" fill="#BF0A0A"/>
<path d="M345.422 186.693H343.662V188.454H345.422V186.693Z" fill="#E2E2E2"/>
<path d="M345.422 189.738H343.662V191.499H345.422V189.738Z" fill="#E2E2E2"/>
<path d="M345.422 192.783H343.662V194.544H345.422V192.783Z" fill="#E2E2E2"/>
</svg>
