<svg width="471" height="257" viewBox="0 0 471 257" fill="none" xmlns="http://www.w3.org/2000/svg">
<g clip-path="url(#clip0)">
<path d="M471 26.6776H150.63V234.642H471V26.6776Z" fill="white"/>
<path d="M165.387 25.5137H140.922V235.418H165.387V25.5137Z" fill="#BF0A0A"/>
<path d="M276.448 83.3245H212.374V84.1005H276.448V83.3245Z" fill="#787878"/>
<path d="M422.459 195.842H334.309V113.588H422.459V195.842ZM335.085 195.066H421.682V114.364H335.085V195.066Z" fill="#787878"/>
<path d="M334.962 113.692L334.432 114.26L421.806 195.738L422.336 195.171L334.962 113.692Z" fill="#D0CDE1"/>
<path d="M421.808 113.694L334.43 195.169L334.96 195.736L422.338 114.262L421.808 113.694Z" fill="#D0CDE1"/>
<path d="M302.854 140.359H212.374V141.135H302.854V140.359Z" fill="#787878"/>
<path d="M302.854 154.327H212.374V155.103H302.854V154.327Z" fill="#787878"/>
<path d="M302.854 168.295H212.374V169.071H302.854V168.295Z" fill="#787878"/>
<path d="M287.739 16.3952C292.271 16.3952 295.944 12.725 295.944 8.19759C295.944 3.67019 292.271 0 287.739 0C283.208 0 279.535 3.67019 279.535 8.19759C279.535 12.725 283.208 16.3952 287.739 16.3952Z" fill="#3F3D56"/>
<path d="M310.815 16.3952C315.346 16.3952 319.02 12.725 319.02 8.19759C319.02 3.67019 315.346 0 310.815 0C306.284 0 302.61 3.67019 302.61 8.19759C302.61 12.725 306.284 16.3952 310.815 16.3952Z" fill="#BF0A0A"/>
<path d="M333.891 16.3952C338.422 16.3952 342.095 12.725 342.095 8.19759C342.095 3.67019 338.422 0 333.891 0C329.359 0 325.686 3.67019 325.686 8.19759C325.686 12.725 329.359 16.3952 333.891 16.3952Z" fill="#D0CDE1"/>
<path d="M275.982 256.022H0V257H275.982V256.022Z" fill="#3F3D56"/>
<path d="M81.4529 95.4383C84.4347 95.4383 86.8518 93.0233 86.8518 90.0441C86.8518 87.065 84.4347 84.6499 81.4529 84.6499C78.4712 84.6499 76.0541 87.065 76.0541 90.0441C76.0541 93.0233 78.4712 95.4383 81.4529 95.4383Z" fill="#2F2E41"/>
<path d="M92.8533 89.245C101.41 89.245 108.346 81.642 108.346 72.2632C108.346 62.8844 101.41 55.2814 92.8533 55.2814C84.297 55.2814 77.3607 62.8844 77.3607 72.2632C77.3607 81.642 84.297 89.245 92.8533 89.245Z" fill="#2F2E41"/>
<path d="M81.9528 145.285L81.5529 147.283C81.5529 147.283 80.3531 148.481 80.953 149.081C81.5529 149.68 81.3529 152.477 81.3529 152.477L80.1532 160.269L73.1546 191.835C73.1546 191.835 63.9565 197.829 56.7581 209.616C49.5596 221.403 49.3596 224.4 49.3596 224.4L57.3579 227.796L77.3537 203.622C77.3537 203.622 82.9526 200.226 84.9522 197.229C86.9517 194.232 99.3491 163.266 99.3491 163.266L106.348 195.631C106.348 195.631 105.948 207.418 107.747 215.01C108.854 219.801 109.523 224.683 109.747 229.594L119.145 228.596C119.145 228.596 118.545 200.226 117.545 197.229C117.545 197.229 121.744 162.666 113.346 148.881L108.347 128.703L99.949 128.303L81.9528 145.285Z" fill="#2F2E41"/>
<path d="M58.9576 226.997L48.9597 220.804L44.3606 229.595C44.3606 229.595 34.1628 235.788 36.3623 240.383C38.5619 244.978 40.5614 246.177 40.5614 246.177L41.9612 245.577L44.5606 250.372C44.5606 250.372 51.3592 260.162 62.3569 255.167C62.873 254.474 63.1517 253.633 63.1517 252.77C63.1517 251.906 62.873 251.065 62.3569 250.372C60.5573 247.775 55.9582 242.181 55.9582 242.181L58.9576 226.997Z" fill="#2F2E41"/>
<path d="M120.145 227.197L109.147 227.996L110.347 236.987C110.347 236.987 105.148 249.773 108.747 250.772C111.308 251.433 113.915 251.9 116.546 252.17L116.945 250.772C116.945 250.772 132.342 259.163 137.941 252.969C137.941 252.969 139.141 248.574 135.742 247.176C132.342 245.777 125.744 242.78 124.944 241.182C124.144 239.584 120.145 227.197 120.145 227.197Z" fill="#2F2E41"/>
<path d="M93.3504 84.55C98.6513 84.55 102.948 80.2565 102.948 74.9603C102.948 69.664 98.6513 65.3705 93.3504 65.3705C88.0496 65.3705 83.7524 69.664 83.7524 74.9603C83.7524 80.2565 88.0496 84.55 93.3504 84.55Z" fill="#FFB8B8"/>
<path d="M86.1519 80.7541C86.1519 80.7541 87.3517 88.5457 81.3529 91.5425C75.3542 94.5393 97.1496 98.1355 97.1496 98.1355C97.1496 98.1355 93.7503 92.941 94.3502 91.143C94.9501 89.3449 97.9495 82.1526 97.9495 82.1526L86.1519 80.7541Z" fill="#FFB8B8"/>
<path d="M84.5522 91.7423C84.5522 91.7423 78.7534 88.3459 76.7539 89.9442C74.7543 91.5425 74.1544 140.49 81.3529 142.488L81.5528 145.085C81.5528 145.085 78.9534 146.284 81.3529 146.284C83.7524 146.284 94.9501 138.093 95.35 135.096C95.7499 132.099 107.347 131.5 107.347 131.5C107.347 131.5 110.347 144.286 111.347 143.886C112.346 143.487 112.346 134.896 111.947 133.697C111.547 132.499 116.546 128.703 115.146 126.305C113.746 123.908 109.947 115.717 109.947 115.717C109.947 115.717 110.347 110.522 104.948 105.727C104.948 105.727 103.37 96.803 96.2607 96.6701C89.1513 96.5371 84.5522 91.7423 84.5522 91.7423Z" fill="#A2A2A2"/>
<path d="M83.7943 63.2901V74.2516H86.3348L89.5681 70.79L89.1352 74.2516H100.366L99.6729 70.79L101.059 74.2516H102.848V63.2901H83.7943Z" fill="#2F2E41"/>
<path d="M107.289 161.508H24.4385V237.107H107.289V161.508Z" fill="#BF0A0A"/>
<path d="M73.497 200.873C66.5125 212.266 68.9155 226.437 68.9155 226.437C68.9155 226.437 82.6425 222.137 89.6269 210.744C96.6114 199.351 94.2084 185.18 94.2084 185.18C94.2084 185.18 80.4814 189.48 73.497 200.873Z" fill="#3F3D56"/>
<path d="M68.6305 226.531L68.2334 226.468C68.0898 226.446 53.7959 224.079 45.2353 213.846C36.6747 203.612 36.8807 189.137 36.8835 188.992L36.892 188.59L37.2892 188.653C37.4328 188.676 51.7267 191.042 60.2873 201.276C68.8478 211.51 68.6418 225.985 68.639 226.13L68.6305 226.531Z" fill="#D0CDE1"/>
<path d="M69.3514 189.521C73.6135 189.521 77.0686 186.069 77.0686 181.81C77.0686 177.552 73.6135 174.1 69.3514 174.1C65.0893 174.1 61.6342 177.552 61.6342 181.81C61.6342 186.069 65.0893 189.521 69.3514 189.521Z" fill="#3F3D56"/>
<path d="M69.5554 140.49L71.9549 158.271C71.9549 158.271 70.5552 173.854 75.9541 174.054C81.353 174.254 77.9537 158.071 77.9537 158.071L77.3538 141.889C77.3538 141.889 72.9547 134.696 69.5554 140.49Z" fill="#FFB8B8"/>
<path d="M78.5535 91.1429C78.5535 91.1429 77.1538 87.347 74.1544 90.3438C71.1551 93.3406 68.5556 101.132 68.5556 105.927C68.5556 110.722 69.1555 138.492 69.1555 138.492C69.1555 138.492 65.9562 139.691 68.1557 141.489C70.3552 143.287 73.3546 140.49 73.3546 140.49C73.3546 140.49 77.3538 143.287 77.7537 143.287C78.1536 143.287 77.9536 139.891 77.9536 139.891C77.9536 139.891 79.9532 134.696 79.5533 130.7C79.1534 126.705 78.5535 91.1429 78.5535 91.1429Z" fill="#A2A2A2"/>
<path d="M422.459 72.4607H211.986V58.105H422.459V72.4607ZM212.762 71.6847H421.682V58.881H212.762V71.6847Z" fill="#787878"/>
<path d="M46.4192 182.203H25.7066C27.3055 175.773 27.1126 168.819 25.7066 161.508H46.4192C43.5198 168.406 43.5198 175.304 46.4192 182.203Z" fill="#D0CDE1"/>
<path d="M41.3979 165.898H28.8448V168.406H41.3979V165.898Z" fill="#3F3D56"/>
<path d="M41.3979 170.914H28.8448V173.423H41.3979V170.914Z" fill="#3F3D56"/>
<path d="M41.3979 175.931H28.8448V178.44H41.3979V175.931Z" fill="#3F3D56"/>
<path d="M232.833 101.113H212.12C213.719 94.6838 213.526 87.7289 212.12 80.4181H232.833C229.933 87.3163 229.933 94.2146 232.833 101.113Z" fill="#D0CDE1"/>
<path d="M227.811 84.8079H215.258V87.3163H227.811V84.8079Z" fill="black"/>
<path d="M227.811 89.8248H215.258V92.3332H227.811V89.8248Z" fill="black"/>
<path d="M227.811 94.8417H215.258V97.3501H227.811V94.8417Z" fill="black"/>
<path d="M388.811 132.366H368.099C369.698 125.937 369.505 118.982 368.099 111.671H388.811C385.912 118.57 385.912 125.468 388.811 132.366Z" fill="#D0CDE1"/>
<path d="M383.79 116.061H371.237V118.57H383.79V116.061Z" fill="black"/>
<path d="M383.79 121.078H371.237V123.587H383.79V121.078Z" fill="black"/>
<path d="M383.79 126.095H371.237V128.603H383.79V126.095Z" fill="black"/>
<path d="M415.442 88.0202H394.729C396.328 81.5912 396.135 74.6363 394.729 67.3254H415.442C412.542 74.2237 412.542 81.122 415.442 88.0202Z" fill="#D0CDE1"/>
<path d="M410.421 71.7153H397.868V74.2237H410.421V71.7153Z" fill="black"/>
<path d="M410.421 76.7322H397.868V79.2406H410.421V76.7322Z" fill="black"/>
<path d="M410.421 81.7491H397.868V84.2575H410.421V81.7491Z" fill="black"/>
<path d="M158.649 111.46H147.659V100.479H158.649V111.46ZM148.504 110.616H157.804V101.324H148.504V110.616Z" fill="#FCFCFC"/>
<path d="M158.859 135.956H147.869V124.975H158.859V135.956ZM148.714 135.111H158.014V125.82H148.714V135.111Z" fill="#FCFCFC"/>
<path d="M159.069 160.452H148.078V149.471H159.069V160.452ZM148.924 159.607H158.223V150.316H148.924V159.607Z" fill="#FCFCFC"/>
<path d="M148.291 153.061C150.159 153.061 151.673 151.548 151.673 149.682C151.673 147.816 150.159 146.303 148.291 146.303C146.424 146.303 144.91 147.816 144.91 149.682C144.91 151.548 146.424 153.061 148.291 153.061Z" fill="#A4A4A4"/>
</g>
<defs>
<clipPath id="clip0">
<rect width="471" height="257" fill="white"/>
</clipPath>
</defs>
</svg>
