<svg width="484" height="251" viewBox="0 0 484 251" fill="none" xmlns="http://www.w3.org/2000/svg">
<g clip-path="url(#clip0)">
<path d="M211.254 2.93024L172.287 140.843L416.565 209.979L455.532 72.066L211.254 2.93024Z" fill="#ECECEC"/>
<path d="M215.474 10.7233C216.591 10.7233 217.497 9.81675 217.497 8.69848C217.497 7.58021 216.591 6.67368 215.474 6.67368C214.356 6.67368 213.451 7.58021 213.451 8.69848C213.451 9.81675 214.356 10.7233 215.474 10.7233Z" fill="#BF0A0A"/>
<path d="M221.704 12.4864C222.821 12.4864 223.727 11.5799 223.727 10.4616C223.727 9.34333 222.821 8.4368 221.704 8.4368C220.586 8.4368 219.68 9.34333 219.68 10.4616C219.68 11.5799 220.586 12.4864 221.704 12.4864Z" fill="#BF0A0A"/>
<path d="M227.933 14.2495C229.051 14.2495 229.956 13.343 229.956 12.2247C229.956 11.1065 229.051 10.1999 227.933 10.1999C226.816 10.1999 225.91 11.1065 225.91 12.2247C225.91 13.343 226.816 14.2495 227.933 14.2495Z" fill="#BF0A0A"/>
<path d="M340.895 90.4409C337.625 89.8222 334.261 89.9017 331.024 90.6741C331.966 87.4347 332.204 84.0307 331.722 80.6914C328.388 81.8992 325.371 83.8476 322.898 86.3903C322.122 82.928 320.571 79.6869 318.363 76.9107C316.204 79.5024 314.626 82.527 313.734 85.7807C311.38 83.4259 308.556 81.5952 305.447 80.4083C305.447 80.4083 303.973 87.9078 307.52 94.0615C310.677 99.5386 316.743 102.102 318.04 102.6L318.07 102.636L318.086 102.617C318.218 102.667 318.292 102.693 318.292 102.693C318.292 102.693 318.32 102.549 318.358 102.292C318.381 102.263 318.405 102.234 318.431 102.201C318.436 102.242 318.44 102.28 318.445 102.316C318.343 102.556 318.292 102.693 318.292 102.693C318.292 102.693 318.368 102.71 318.506 102.736L318.51 102.761L318.555 102.745C319.92 103.001 326.429 103.997 331.984 100.985C338.226 97.602 340.895 90.4409 340.895 90.4409Z" fill="#BF0A0A"/>
<path d="M328.789 71.284C331.694 71.284 334.049 68.927 334.049 66.0195C334.049 63.112 331.694 60.755 328.789 60.755C325.884 60.755 323.529 63.112 323.529 66.0195C323.529 68.927 325.884 71.284 328.789 71.284Z" fill="#BF0A0A"/>
<path d="M394.836 134.372L236.758 89.6321L235.785 93.0742L393.863 137.814L394.836 134.372Z" fill="#BF0A0A"/>
<path d="M273.963 118.679L246.709 110.965L239.001 138.243L266.256 145.957L273.963 118.679Z" fill="#BF0A0A"/>
<path d="M324.579 133.005L297.325 125.291L289.617 152.569L316.872 160.282L324.579 133.005Z" fill="#BF0A0A"/>
<path d="M375.196 147.33L347.941 139.616L340.234 166.894L367.488 174.608L375.196 147.33Z" fill="#BF0A0A"/>
<path d="M261.211 150.421L240.964 144.69L240.303 147.028L260.55 152.759L261.211 150.421Z" fill="#BF0A0A"/>
<path d="M311.827 164.746L291.58 159.016L290.92 161.354L311.166 167.084L311.827 164.746Z" fill="#BF0A0A"/>
<path d="M362.443 179.071L342.196 173.341L341.536 175.679L361.782 181.409L362.443 179.071Z" fill="#BF0A0A"/>
<path d="M138.078 194.215C212.861 194.215 273.485 191.972 273.485 189.204C273.485 186.437 212.861 184.194 138.078 184.194C63.2941 184.194 2.67004 186.437 2.67004 189.204C2.67004 191.972 63.2941 194.215 138.078 194.215Z" fill="#D0CDE1"/>
<path d="M378.63 251C436.824 251 484 248.757 484 245.99C484 243.222 436.824 240.979 378.63 240.979C320.436 240.979 273.26 243.222 273.26 245.99C273.26 248.757 320.436 251 378.63 251Z" fill="#D0CDE1"/>
<path d="M326.95 207.099H357.349V219.822H339.663V232.546H357.351V245.269H326.95V207.099ZM363.43 207.099H393.829V218.163H376.143V220.375H393.829V245.822H363.431V234.204H381.117V231.991H363.429V207.099H363.43ZM399.91 207.099H430.31V218.163H412.623V220.375H430.31V245.822H399.91V234.204H417.597V231.991H399.911V207.099H399.91Z" fill="#BF0A0A"/>
<path d="M61.2623 148.882H73.8029V161.282H85.2749V148.882H97.8163V186.433H85.2757V173.859H73.8037V186.433H61.2631V148.882H61.2623ZM114.307 161.335H103.268V148.882H137.895V161.335H126.85V186.433H114.309V161.335H114.307ZM143.39 148.882H156.467L164.51 162.077L172.546 148.882H185.627V186.433H173.138V167.821L164.51 181.172H164.294L155.661 167.821V186.433H143.39V148.882ZM191.868 148.882H204.413V174.021H222.048V186.433H191.868V148.882H191.868Z" fill="#BF0A0A"/>
<path d="M39.1128 174.694L38.0839 186.369L46.318 185.682V175.724L39.1128 174.694Z" fill="#FFB8B8"/>
<path d="M31.5647 174.694L32.5941 186.369L24.36 185.682V175.724L31.5647 174.694Z" fill="#FFB8B8"/>
<path d="M53.1799 85.0707C53.1799 85.0707 55.9247 101.553 55.9247 103.957C55.9247 106.36 54.8954 121.813 53.1799 124.903C51.4644 127.994 51.1213 129.367 51.8075 130.741C52.4937 132.114 52.1506 131.771 51.8075 132.801C51.4644 133.831 50.7782 133.488 51.8075 134.861C52.2278 135.466 52.4531 136.185 52.4531 136.922C52.4531 137.658 52.2278 138.377 51.8075 138.982C51.1213 140.012 53.1799 167.826 50.4351 169.886C47.6903 171.947 47.0042 178.814 47.0042 178.814L38.0837 177.784V170.23C38.0837 170.23 36.0251 164.736 37.3975 161.302C38.7699 157.868 39.456 139.669 39.456 139.669C39.456 139.669 39.1129 137.952 39.456 136.922C39.7991 135.891 39.456 135.205 38.7699 134.861C38.0837 134.518 37.7406 133.144 37.7406 133.144L36.7113 108.077L32.5941 132.801C32.5941 132.801 36.7113 166.453 32.5941 170.916V178.814H23.6736L25.046 170.23C25.046 170.23 22.3012 162.332 23.6736 160.615C25.046 158.898 19.5565 131.427 20.2427 130.397C20.9289 129.367 20.5858 129.024 20.2427 128.337C19.8996 127.65 18.8703 126.963 19.2134 126.277C19.5565 125.59 19.2134 124.216 19.2134 124.216C19.2134 124.216 12.6945 91.9384 15.7824 88.8479C18.8703 85.7575 53.1799 85.0707 53.1799 85.0707Z" fill="#2F2E41"/>
<path d="M40.1422 181.905C40.1422 181.905 40.8284 178.612 46.318 179.743C46.318 179.743 47.6903 182.592 47.6903 183.965C47.6903 185.339 49.0627 194.61 49.0627 194.61C49.0627 194.61 54.5523 203.881 47.6903 203.881C40.8284 203.881 38.4268 201.478 38.0837 199.074C37.7406 196.67 38.4268 195.983 37.0544 194.953C35.682 193.923 34.9958 193.923 35.3389 192.55C35.682 191.176 36.3682 184.308 36.3682 184.308C36.3682 184.308 36.7113 179.158 38.5983 180.531L40.4853 181.905" fill="#2F2E41"/>
<path d="M30.5356 181.905C30.5356 181.905 29.8494 178.612 24.3598 179.743C24.3598 179.743 22.9875 182.592 22.9875 183.965C22.9875 185.339 21.6151 194.61 21.6151 194.61C21.6151 194.61 16.1255 203.881 22.9875 203.881C29.8494 203.881 32.2511 201.478 32.5941 199.074C32.9372 196.67 32.251 195.983 33.6234 194.953C34.9958 193.923 35.682 193.923 35.3389 192.55C34.9958 191.176 34.3096 184.308 34.3096 184.308C34.3096 184.308 33.9665 179.158 32.0795 180.531L30.1925 181.905" fill="#2F2E41"/>
<path d="M40.4853 21.8882C45.6014 21.8882 49.7489 17.7373 49.7489 12.6169C49.7489 7.49644 45.6014 3.34552 40.4853 3.34552C35.3691 3.34552 31.2217 7.49644 31.2217 12.6169C31.2217 17.7373 35.3691 21.8882 40.4853 21.8882Z" fill="#FFB8B8"/>
<path d="M32.9372 13.9904C32.9372 13.9904 29.1632 28.7559 28.477 29.0992C27.7908 29.4426 44.2594 30.8162 44.2594 30.8162C44.2594 30.8162 40.1423 18.111 44.2594 16.0507L32.9372 13.9904Z" fill="#FFB8B8"/>
<path d="M30.527 22.9884L30.5265 22.9865L19.2134 30.8162L21.272 92.2818C21.272 92.2818 36.3682 90.5648 39.7991 90.9082C43.2301 91.2516 54.2092 87.8178 54.2092 87.8178L49.4002 30.0612C49.3062 28.9326 48.8119 27.8749 48.0067 27.0792C47.2016 26.2836 46.1385 25.8024 45.0098 25.7227L42.9492 25.5773C42.9492 25.5773 40.8908 30.6781 34.6976 28.0466C33.6534 27.592 32.7313 26.8968 32.0065 26.0178C31.2817 25.1388 30.7748 24.1008 30.527 22.9884Z" fill="#D0CDE1"/>
<path d="M30.8006 22.4278L16.8117 29.0993L14.067 68.5883C14.067 68.5883 8.57742 92.2818 13.0377 99.1494C17.4979 106.017 25.046 106.704 25.046 106.704C25.046 106.704 34.9958 67.2148 32.251 53.8229C29.5063 40.4309 30.8006 22.4278 30.8006 22.4278Z" fill="#BDBDBD"/>
<path d="M4.4602 81.9803V87.131C4.4602 87.131 2.40162 98.4626 8.92044 98.1193C15.4393 97.7759 12.3514 85.7575 12.3514 85.7575L10.2928 81.9803H4.4602Z" fill="#FFB8B8"/>
<path d="M64.8452 92.2817L64.159 98.1192C64.159 98.1192 67.59 109.794 61.0712 110.138C54.5523 110.481 59.2842 98.1909 59.2842 98.1909L61.4142 91.595L64.8452 92.2817Z" fill="#FFB8B8"/>
<path d="M42.7428 24.3773C48.9943 25.9184 54.7874 28.9323 59.6394 33.1681L59.6987 33.2199L54.8954 58.6302L54.2092 67.9016C54.2092 67.9016 66.9037 113.228 52.1506 106.704C52.1506 106.704 39.456 67.2148 41.1715 49.0155C42.887 30.8162 42.7428 24.3773 42.7428 24.3773Z" fill="#BDBDBD"/>
<path d="M55.2384 32.8765C55.5815 32.5331 59.6987 33.3537 59.6987 33.3537C59.6987 33.3537 67.2468 60.0037 67.2468 64.4677C67.2468 68.9317 68.2761 94.3421 68.2761 94.3421L59.2194 95.2557L51.8888 59.9504L55.2384 32.8765Z" fill="#BDBDBD"/>
<path d="M19.2134 29.0992H16.8117C16.8117 29.0992 9.94979 31.8463 9.60669 34.9368C9.26359 38.0272 0 69.2751 0 69.2751L2.40167 85.0707L11.3222 83.6972L13.0377 66.1846L21.9582 46.9552L19.2134 29.0992Z" fill="#BDBDBD"/>
<path d="M38.6857 15.2044L39.0408 12.7264C39.1236 12.1489 39.4614 11.3895 40.0228 11.5465C40.5004 11.6801 41.5408 12.0893 41.715 11.9658C42.3673 11.5033 43.3545 12.312 44.0405 11.9011C44.3279 11.729 44.5154 11.3602 44.8494 11.3356C45.0735 11.3499 45.2847 11.4456 45.4433 11.6048C45.8886 11.9924 46.4132 12.2777 46.9805 12.4406C47.265 12.5182 47.5652 12.5181 47.8497 12.4405C48.1343 12.3629 48.3929 12.2105 48.5988 11.9991C48.6715 11.8865 48.7695 11.7925 48.885 11.7246C49.0205 11.6855 49.1651 11.6921 49.2965 11.7435L51.0492 12.2211C51.307 11.2857 51.3599 10.3056 51.2044 9.3478C51.0489 8.39001 50.6886 7.47712 50.1481 6.67152C49.4371 5.70556 48.5751 4.86065 47.5953 4.16932C46.5099 3.34287 45.3897 2.56553 44.2348 1.83731C43.0104 0.970276 41.6206 0.365119 40.1521 0.0596042C38.674 -0.165031 37.019 0.236863 36.0893 1.40861C35.652 1.09185 35.3233 0.647447 35.1483 0.136349C35.0441 0.231271 34.9619 0.347942 34.9077 0.478118C34.8534 0.608294 34.8283 0.748802 34.8343 0.889729C34.8402 1.03066 34.8769 1.16856 34.9419 1.29372C35.0069 1.41887 35.0986 1.52822 35.2104 1.61404L33.7281 0.66666C33.3114 1.10456 34.1256 1.89861 33.7705 2.38792C33.6631 2.50894 33.5253 2.59899 33.3714 2.6487C32.5666 2.96267 31.8289 3.42736 31.1979 4.01786C30.3991 4.92874 29.8142 6.00709 29.4862 7.17377C28.6029 9.70999 27.9609 12.6185 29.2159 14.9926C29.3582 15.2618 31.2362 19.7041 31.4864 19.8774C32.3323 20.4629 31.7816 19.0458 32.3877 19.8774C32.863 20.5295 32.774 18.0336 33.4803 18.5815C33.7573 18.7798 34.0857 18.8935 34.4258 18.9088C34.766 18.9241 35.1033 18.8403 35.3969 18.6677C35.6897 18.4645 35.5953 17.3358 35.4373 16.2993C35.4071 16.1019 35.4258 15.9001 35.4916 15.7115C35.5574 15.523 35.6685 15.3535 35.815 15.2179C35.9615 15.0823 36.139 14.9847 36.332 14.9337C36.5249 14.8828 36.7274 14.8799 36.9217 14.9255C37.8015 15.1326 38.6706 15.3096 38.6857 15.2044Z" fill="#2F2E41"/>
<path opacity="0.2" d="M56.0964 63.9525L59.8702 95.2006H57.4686L56.0964 63.9525Z" fill="black"/>
<path opacity="0.2" d="M16.2971 51.9341L14.389 63.9525L18.0126 51.9341H16.9832H16.2971Z" fill="black"/>
</g>
<defs>
<clipPath id="clip0">
<rect width="484" height="251" fill="white"/>
</clipPath>
</defs>
</svg>
