<svg width="58" height="96" viewBox="0 0 58 96" fill="none" xmlns="http://www.w3.org/2000/svg">
<ellipse cx="29" cy="92" rx="6" ry="4" fill="#BF0A0A"/>
<path d="M28.5 88L9.01443 46.75L47.9856 46.75L28.5 88Z" fill="white" stroke="#BF0A0A" stroke-width="3"/>
<rect x="1.5" y="1.5" width="55" height="55" rx="27.5" fill="white" stroke="#BF0A0A" stroke-width="3"/>
<path d="M41.9886 16H29.3636V18.7052L26.7158 20.017H29.3636V24.0341H26.7158L29.3636 25.4085V28.0511H29.2535L21.9034 24.4077V28.0511H18.4602V24.4077L11.1343 28.0511H11V34.9375C11 38.4237 12.9356 41.25 16.7386 41.25H41.9886C45.7916 41.25 47.7273 38.4237 47.7273 34.9375V22.3125C47.7273 18.8263 45.7916 16 41.9886 16Z" fill="#2B3990"/>
<path d="M29.3639 17.3451V17.3302L24.1016 20.017L29.3639 17.3451Z" fill="#4189DD"/>
<path d="M11 24.0341V25.4297L13.6891 24.0341H11Z" fill="#2B3990"/>
<path d="M11.696 19.03C11.5433 19.3482 11.417 19.6783 11.3184 20.0171H13.6896L11.696 19.03Z" fill="#2B3990"/>
<path d="M29.3635 16.0057V16H21.9033V19.8443L29.3635 16.0057Z" fill="#2B3990"/>
<path d="M18.4601 19.8443V16H16.7385C15.2349 16 14.0281 16.4465 13.1128 17.1965L18.4601 19.8443Z" fill="#2B3990"/>
<path d="M29.3637 20.5909V20.017H26.7159L29.3637 18.7052V17.3451L24.1014 20.017H22.358L29.3637 16.4402V16.0057L21.9035 19.8443V16H21.3296V20.5909H29.3637Z" fill="white"/>
<path d="M21.3296 28.0511H21.9035V24.4077L29.2535 28.0511H29.3637V26.7427L24.1014 24.0341H25.8453L29.3637 25.8532V25.4085L26.7159 24.0341H29.3637V23.4602H21.3296V28.0511Z" fill="white"/>
<path d="M18.4602 24.4077V28.0511H19.0341V23.4602H11V24.0341H13.6891L11 25.4297V26.7485L16.3036 24.0341H18.0482L11 27.638V28.0511H11.1343L18.4602 24.4077Z" fill="white"/>
<path d="M13.1127 17.1994C12.8109 17.4467 12.5417 17.7273 12.3042 18.0366L16.3034 20.0199H14.5595L11.8652 18.6989C11.8052 18.8085 11.7486 18.9199 11.6953 19.0329L13.6889 20.0199H11.3177C11.2626 20.207 11.215 20.3981 11.1748 20.5938H19.0339V16.0029H18.46V19.8472L13.1127 17.1994Z" fill="white"/>
<path d="M19.0341 28.0511H21.3295V23.4602H29.3636V20.782L21.3295 21.1648V16H19.0341V21.1648L11.1308 20.8256C11.0442 21.3165 11.0004 21.814 11 22.3125V23.4602H19.0341V28.0511Z" fill="#FF0000"/>
<path d="M21.3296 21.1648L29.3637 20.782V20.5909H21.3296V21.1648Z" fill="#FF0000"/>
<path d="M11.1313 20.8256L19.0346 21.1648V20.5909H11.1755C11.1589 20.6684 11.1451 20.7464 11.1313 20.8256Z" fill="#FF0000"/>
<path d="M16.3041 20.017L12.3008 18.0384C12.1403 18.2471 11.9948 18.4668 11.8652 18.696L14.5601 20.017H16.3041Z" fill="#FF0000"/>
<path d="M12.3041 18.0338L12.3013 18.0383L16.304 20.017L12.3041 18.0338Z" fill="#FF0000"/>
<path d="M24.1018 20.017L29.3641 17.3302V16.4401L22.3584 20.017H24.1018Z" fill="#FF0000"/>
<path d="M24.1016 24.0341L29.3639 26.7209V25.8532L25.8455 24.0341H24.1016Z" fill="#FF0000"/>
<path d="M29.3639 26.7427V26.7209L24.1016 24.0341L29.3639 26.7427Z" fill="#FF0000"/>
<path d="M16.3036 24.0341L11 26.7617V27.638L18.0482 24.0341H16.3036Z" fill="#FF0000"/>
<path d="M11 26.7485V26.7617L16.3036 24.0341L11 26.7485Z" fill="#FF0000"/>
<path d="M19.4605 33.4225L20.1818 31.2194L20.8871 33.4225L23.0299 32.5961L21.7634 34.5128L23.757 35.6892L21.4501 35.8901L21.764 38.1827L20.1824 36.5099L18.5911 38.1827L18.8987 35.8901L16.6084 35.7007L18.5848 34.5186L17.3114 32.5961L19.4605 33.4225Z" fill="white"/>
<path d="M37.947 34.1955L38.2299 33.3249L38.5099 34.1955L39.3547 33.8701L38.8566 34.6276L39.6439 35.0924L38.7349 35.1728L38.8566 36.0766L38.2299 35.4161L37.6044 36.0766L37.7243 35.1728L36.8193 35.0924L37.5986 34.6276L37.0994 33.8701L37.947 34.1955Z" fill="white"/>
<path d="M33.0915 26.5344L33.3761 25.6644L33.655 26.5344L34.5015 26.2084L33.9999 26.9665L34.7884 27.4313L33.8771 27.5117L33.9999 28.4161L33.3761 27.755L32.7472 28.4161L32.8694 27.5117L31.9639 27.4336L32.7455 26.9665L32.2439 26.2084L33.0915 26.5344Z" fill="white"/>
<path d="M42.2638 25.2507L42.5473 24.3802L42.8262 25.2507L43.6726 24.9242L43.1705 25.6823L43.9624 26.1471L43.0483 26.2257L43.1705 27.1313L42.5473 26.473L41.9183 27.1313L42.04 26.2257L41.1333 26.1494L41.9161 25.6845L41.4128 24.9242L42.2638 25.2507Z" fill="white"/>
<path d="M40.3128 28.9716L40.4505 28.5372L40.5917 28.9716L41.0129 28.8087L40.765 29.1874L41.1563 29.4198L40.7036 29.4589L40.765 29.9105L40.4505 29.5817L40.1389 29.9105L40.1997 29.4589L39.7446 29.421L40.1377 29.1886L39.8881 28.8087L40.3128 28.9716Z" fill="white"/>
<path d="M37.947 21.2509L38.2299 20.3809L38.5099 21.2509L39.3547 20.9249L38.8566 21.683L39.6439 22.1478L38.7349 22.2264L38.8566 23.1326L38.2299 22.4715L37.6044 23.1326L37.7243 22.2264L36.8193 22.1501L37.5986 21.6853L37.0994 20.9249L37.947 21.2509Z" fill="white"/>
</svg>
