<svg width="58" height="96" viewBox="0 0 58 96" fill="none" xmlns="http://www.w3.org/2000/svg">
<ellipse cx="28.5" cy="92" rx="7.5" ry="4" fill="#BF0A0A"/>
<path d="M28.5 88L9.01443 46.75L47.9856 46.75L28.5 88Z" fill="white" stroke="#BF0A0A" stroke-width="3"/>
<rect x="1.5" y="1.5" width="55" height="55" rx="27.5" fill="white" stroke="#BF0A0A" stroke-width="3"/>
<path d="M46.73 34.9375C46.73 38.4237 44.7942 41.25 40.9909 41.25H15.7391C11.9358 41.25 10 38.4237 10 34.9375V22.3125C10 18.8263 11.9358 16 15.7391 16H40.9909C44.7942 16 46.73 18.8263 46.73 22.3125V34.9375Z" fill="#EC1C24"/>
<path d="M36.0726 26.3083L30.3353 26.3169L28.5544 20.5129L26.7868 26.3169L21.042 26.3083L25.6941 29.8416L23.892 35.6089L28.5579 32.0275L33.2335 35.6089L31.4274 29.8416L36.0726 26.3083Z" fill="#F9CB38"/>
</svg>
