<svg width="424" height="334" viewBox="0 0 424 334" fill="none" xmlns="http://www.w3.org/2000/svg">
<g clip-path="url(#clip0)">
<path d="M367.709 272.425C366.686 264.23 369.89 255.796 367.985 247.773C366.521 241.576 362.181 236.403 360.755 230.195C358.66 220.994 363.453 211.546 369.569 204.481C373.776 199.612 379.055 195.194 385.348 194.309C389.234 193.744 393.228 194.617 396.815 196.236C400.463 197.909 403.735 200.332 406.426 203.354C409.117 206.377 411.17 209.934 412.457 213.804C413.286 216.318 413.764 218.949 414.784 221.388C416.539 225.589 419.759 228.978 421.763 233.066C423.099 235.836 423.853 238.861 423.979 241.946C424.104 245.032 423.597 248.11 422.49 250.984C420.171 256.901 415.304 261.851 414.585 268.184C414.063 272.747 415.738 277.745 413.563 281.766C411.921 284.801 408.541 286.332 405.341 287.48C397.903 290.125 387.495 294.42 380.033 290.331C373.507 286.756 368.656 279.988 367.709 272.425Z" fill="#E6E6E6"/>
<path d="M388.603 275.861C388.603 275.861 396.766 272.495 397.795 270.601C398.824 268.707 400.264 257.555 400.264 257.555" stroke="#D0CDE1" stroke-width="3" stroke-miterlimit="10"/>
<path d="M388.498 332.684L388.747 251.339" stroke="#D0CDE1" stroke-width="3" stroke-miterlimit="10"/>
<path d="M326.942 245.619C325.756 236.114 329.471 226.33 327.262 217.024C325.563 209.836 320.53 203.835 318.876 196.634C316.448 185.962 322.004 175.001 329.102 166.807C333.981 161.16 340.104 156.033 347.405 155.007C351.913 154.352 356.545 155.364 360.707 157.243C364.938 159.182 368.734 161.993 371.856 165.499C374.978 169.005 377.36 173.131 378.852 177.62C379.814 180.537 380.369 183.587 381.552 186.417C383.588 191.291 387.323 195.224 389.647 199.964C391.196 203.177 392.072 206.685 392.217 210.264C392.362 213.843 391.774 217.414 390.49 220.747C387.801 227.61 382.155 233.353 381.321 240.698C380.714 245.992 382.658 251.79 380.135 256.452C378.231 259.972 374.31 261.75 370.598 263.079C361.971 266.147 349.897 271.129 341.241 266.386C333.664 262.243 328.038 254.393 326.942 245.619Z" fill="#BF0A0A"/>
<path d="M351.054 332.684V219.604" stroke="#333333" stroke-width="3" stroke-miterlimit="10"/>
<path d="M351.176 252.374C351.176 252.374 363.89 247.13 365.493 244.18C367.096 241.23 369.339 223.859 369.339 223.859" stroke="#333333" stroke-width="3" stroke-miterlimit="10"/>
<path d="M297.937 0.0363653L141.041 0.421055C134.594 0.436862 129.381 5.79288 129.397 12.3841L130.149 321.133C130.165 327.724 135.404 333.054 141.851 333.038L298.747 332.654C305.194 332.638 310.407 327.282 310.391 320.691L309.64 11.9421C309.623 5.35095 304.384 0.0205582 297.937 0.0363653Z" fill="#2F2E41"/>
<path d="M303.994 313.935C303.999 315.751 303.299 317.495 302.048 318.783C300.797 320.072 299.096 320.8 297.32 320.807L143.309 321.189C141.533 321.191 139.828 320.473 138.57 319.191C137.312 317.909 136.603 316.169 136.6 314.353L136.494 268.087L135.905 18.6239C135.899 16.808 136.599 15.0641 137.851 13.7755C139.102 12.4869 140.803 11.7591 142.579 11.752L174.791 11.6747C175.306 15.1214 177.009 18.2663 179.594 20.5416C182.178 22.8169 185.472 24.0728 188.883 24.0827L249.742 23.9333C253.162 23.9185 256.463 22.6518 259.047 20.3626C261.632 18.0734 263.328 14.9133 263.83 11.4551L296.544 11.3725C298.32 11.3701 300.025 12.0888 301.283 13.3705C302.541 14.6523 303.249 16.3923 303.253 18.2081L303.882 268.087L303.994 313.935Z" fill="white"/>
<path d="M303.993 317.081C304.015 318.92 303.321 320.691 302.065 322.007C300.81 323.323 299.094 324.075 297.296 324.099L142.743 324.488C140.945 324.475 139.226 323.732 137.963 322.423C136.701 321.115 135.998 319.347 136.01 317.509L135.905 270.269H303.883L303.993 317.081Z" fill="#E6E6E6"/>
<path d="M237.148 12.0618L198.854 12.6495C198.338 12.6574 197.927 13.0913 197.934 13.6185L197.944 14.2772C197.952 14.8044 198.376 15.2254 198.892 15.2175L237.186 14.6298C237.702 14.6219 238.113 14.1881 238.106 13.6608L238.096 13.0021C238.088 12.4749 237.664 12.0539 237.148 12.0618Z" fill="white"/>
<path d="M246.648 14.4802C247.481 14.4674 248.147 13.7665 248.134 12.9148C248.122 12.063 247.436 11.3829 246.603 11.3957C245.77 11.4085 245.105 12.1093 245.117 12.9611C245.13 13.8128 245.815 14.493 246.648 14.4802Z" fill="white"/>
<path d="M172.065 54.4033H150.147C147.439 54.4033 145.244 56.6475 145.244 59.4158V81.8243C145.244 84.5926 147.439 86.8368 150.147 86.8368H172.065C174.773 86.8368 176.968 84.5926 176.968 81.8243V59.4158C176.968 56.6475 174.773 54.4033 172.065 54.4033Z" fill="#E6E6E6"/>
<path d="M211.224 54.4033H189.306C186.598 54.4033 184.403 56.6475 184.403 59.4158V81.8243C184.403 84.5926 186.598 86.8368 189.306 86.8368H211.224C213.932 86.8368 216.127 84.5926 216.127 81.8243V59.4158C216.127 56.6475 213.932 54.4033 211.224 54.4033Z" fill="#E6E6E6"/>
<path d="M250.383 54.4033H228.465C225.757 54.4033 223.562 56.6475 223.562 59.4158V81.8243C223.562 84.5926 225.757 86.8368 228.465 86.8368H250.383C253.091 86.8368 255.286 84.5926 255.286 81.8243V59.4158C255.286 56.6475 253.091 54.4033 250.383 54.4033Z" fill="#E6E6E6"/>
<path d="M289.542 54.4033H267.624C264.916 54.4033 262.721 56.6475 262.721 59.4158V81.8243C262.721 84.5926 264.916 86.8368 267.624 86.8368H289.542C292.249 86.8368 294.444 84.5926 294.444 81.8243V59.4158C294.444 56.6475 292.249 54.4033 289.542 54.4033Z" fill="#E6E6E6"/>
<path d="M172.054 103.021H150.147C147.439 103.021 145.244 105.265 145.244 108.034V130.431C145.244 133.199 147.439 135.443 150.147 135.443H172.054C174.761 135.443 176.956 133.199 176.956 130.431V108.034C176.956 105.265 174.761 103.021 172.054 103.021Z" fill="#BF0A0A"/>
<path d="M211.198 103.021H189.291C186.584 103.021 184.389 105.265 184.389 108.034V130.431C184.389 133.199 186.584 135.443 189.291 135.443H211.198C213.906 135.443 216.101 133.199 216.101 130.431V108.034C216.101 105.265 213.906 103.021 211.198 103.021Z" fill="#E6E6E6"/>
<path d="M250.343 103.021H228.436C225.729 103.021 223.534 105.265 223.534 108.034V130.431C223.534 133.199 225.729 135.443 228.436 135.443H250.343C253.051 135.443 255.246 133.199 255.246 130.431V108.034C255.246 105.265 253.051 103.021 250.343 103.021Z" fill="#E6E6E6"/>
<path d="M289.488 103.021H267.581C264.873 103.021 262.678 105.265 262.678 108.034V130.431C262.678 133.199 264.873 135.443 267.581 135.443H289.488C292.195 135.443 294.391 133.199 294.391 130.431V108.034C294.391 105.265 292.195 103.021 289.488 103.021Z" fill="#E6E6E6"/>
<path d="M172.065 151.704H150.147C147.439 151.704 145.244 153.948 145.244 156.716V179.125C145.244 181.893 147.439 184.137 150.147 184.137H172.065C174.773 184.137 176.968 181.893 176.968 179.125V156.716C176.968 153.948 174.773 151.704 172.065 151.704Z" fill="#E6E6E6"/>
<path d="M211.224 151.704H189.306C186.598 151.704 184.403 153.948 184.403 156.716V179.125C184.403 181.893 186.598 184.137 189.306 184.137H211.224C213.932 184.137 216.127 181.893 216.127 179.125V156.716C216.127 153.948 213.932 151.704 211.224 151.704Z" fill="#E6E6E6"/>
<path d="M250.383 151.704H228.465C225.757 151.704 223.562 153.948 223.562 156.716V179.125C223.562 181.893 225.757 184.137 228.465 184.137H250.383C253.091 184.137 255.286 181.893 255.286 179.125V156.716C255.286 153.948 253.091 151.704 250.383 151.704Z" fill="#E6E6E6"/>
<path d="M289.542 151.704H267.624C264.916 151.704 262.721 153.948 262.721 156.716V179.125C262.721 181.893 264.916 184.137 267.624 184.137H289.542C292.249 184.137 294.444 181.893 294.444 179.125V156.716C294.444 153.948 292.249 151.704 289.542 151.704Z" fill="#E6E6E6"/>
<path d="M172.065 200.354H150.147C147.439 200.354 145.244 202.598 145.244 205.367V227.775C145.244 230.543 147.439 232.788 150.147 232.788H172.065C174.773 232.788 176.968 230.543 176.968 227.775V205.367C176.968 202.598 174.773 200.354 172.065 200.354Z" fill="#E6E6E6"/>
<path d="M211.224 200.354H189.306C186.598 200.354 184.403 202.598 184.403 205.367V227.775C184.403 230.543 186.598 232.788 189.306 232.788H211.224C213.932 232.788 216.127 230.543 216.127 227.775V205.367C216.127 202.598 213.932 200.354 211.224 200.354Z" fill="#E6E6E6"/>
<path d="M250.383 200.354H228.465C225.757 200.354 223.562 202.598 223.562 205.367V227.775C223.562 230.543 225.757 232.788 228.465 232.788H250.383C253.091 232.788 255.286 230.543 255.286 227.775V205.367C255.286 202.598 253.091 200.354 250.383 200.354Z" fill="#E6E6E6"/>
<path d="M289.542 200.354H267.624C264.916 200.354 262.721 202.598 262.721 205.367V227.775C262.721 230.543 264.916 232.788 267.624 232.788H289.542C292.249 232.788 294.444 230.543 294.444 227.775V205.367C294.444 202.598 292.249 200.354 289.542 200.354Z" fill="#E6E6E6"/>
<path d="M170.925 280.795H147.782C145.074 280.795 142.879 283.04 142.879 285.808V309.468C142.879 312.237 145.074 314.481 147.782 314.481H170.925C173.632 314.481 175.827 312.237 175.827 309.468V285.808C175.827 283.04 173.632 280.795 170.925 280.795Z" fill="#BF0A0A"/>
<path d="M211.595 280.795H188.452C185.745 280.795 183.55 283.039 183.55 285.808V309.468C183.55 312.237 185.745 314.481 188.452 314.481H211.595C214.303 314.481 216.498 312.237 216.498 309.468V285.808C216.498 283.039 214.303 280.795 211.595 280.795Z" fill="#BF0A0A"/>
<path d="M252.266 280.795H229.123C226.415 280.795 224.22 283.039 224.22 285.808V309.468C224.22 312.237 226.415 314.481 229.123 314.481H252.266C254.974 314.481 257.169 312.237 257.169 309.468V285.808C257.169 283.039 254.974 280.795 252.266 280.795Z" fill="#BF0A0A"/>
<path d="M292.936 280.795H269.794C267.086 280.795 264.891 283.039 264.891 285.808V309.468C264.891 312.237 267.086 314.481 269.794 314.481H292.936C295.644 314.481 297.839 312.237 297.839 309.468V285.808C297.839 283.039 295.644 280.795 292.936 280.795Z" fill="#BF0A0A"/>
<path d="M137.505 113.698V121.081L128.901 133.971L137.505 139.696C137.505 139.696 141.329 124.633 143.391 122.86C143.391 122.86 146.63 120.498 148.392 117.249C150.154 114.001 149.273 102.775 140.739 112.818V114L137.505 113.698Z" fill="#FDA57D"/>
<path d="M70.4773 127.014L73.8859 120.047C73.985 119.842 74.1358 119.668 74.3228 119.542C74.5097 119.416 74.726 119.343 74.9495 119.331L87.8881 118.656C88.0984 118.644 88.3081 118.687 88.4981 118.78C88.6881 118.873 88.8524 119.013 88.9759 119.187C89.0994 119.361 89.1782 119.565 89.2052 119.778C89.2321 119.992 89.2063 120.209 89.1301 120.409L85.7921 129.232C85.6934 129.493 85.5143 129.714 85.2818 129.862C85.0493 130.01 84.776 130.076 84.5034 130.051L71.4989 128.868C71.2946 128.85 71.0978 128.781 70.9254 128.667C70.753 128.554 70.6102 128.399 70.5096 128.216C70.4089 128.034 70.3534 127.829 70.3478 127.619C70.3421 127.41 70.3866 127.202 70.4773 127.014Z" fill="#FDA57D"/>
<path d="M71.4345 124.024L69.2367 130.612L91.8057 129.783L83.1362 124.465L71.4345 124.024Z" fill="#EDEEF9"/>
<path d="M62.4125 196.021C63.319 200.579 62.7856 205.314 60.8894 209.542C57.7143 216.336 57.7143 223.436 61.7565 231.696L62.914 274.528C62.914 274.528 64.3573 294.618 62.914 298.752C61.4708 302.887 63.4809 322.684 63.4809 322.684H79.6628V309.388L85.1506 270.1V250.007L94.9916 270.983L83.7442 319.432L98.4776 325.637L116.968 271.282C116.968 271.282 113.763 228.449 102.206 213.682L100.032 197.58L62.4125 196.021Z" fill="#3F3D56"/>
<path d="M63.1997 332.658V321.729H79.6673C79.6673 321.729 80.8248 326.161 88.3368 327.047C95.8487 327.933 84.8689 333.253 84.8689 333.253L63.1997 332.658Z" fill="#3F3D56"/>
<path d="M81.4558 327.764L84.3228 317.224L98.5814 321.854C98.5814 321.854 100.139 326.329 107.145 329.242C111.916 331.226 106.719 333.507 106.719 333.507L104.843 334.002L81.4558 327.764Z" fill="#3F3D56"/>
<path opacity="0.1" d="M100.033 198.464L62.4073 196.907C62.8734 199.201 62.9699 201.557 62.6931 203.883C64.4128 208.022 68.1057 206.89 68.1057 206.89L101.027 205.855L100.033 198.464Z" fill="black"/>
<path d="M69.9908 128.159L68.491 129.199C63.953 132.341 60.4079 136.766 58.2883 141.934C56.1688 147.102 55.5665 152.788 56.5549 158.3C56.5549 158.3 64.934 175.069 62.3332 191.838C59.7324 208.607 68.1114 206.02 68.1114 206.02L101.196 204.978L103.651 154.121C103.651 154.121 123.587 157.019 132.547 149.928L139.769 138.647L128.789 130.9L125.042 136.379C125.042 136.379 113.275 133.84 106.812 131.157C103.798 129.9 100.59 129.197 97.336 129.082L69.9908 128.159Z" fill="#BF0A0A"/>
<path opacity="0.1" d="M70.2803 209.987C70.2803 209.987 68.2557 220.327 79.8168 237.46L70.2803 209.987Z" fill="black"/>
<path opacity="0.1" d="M103.783 154.156C103.783 154.156 117.651 149.43 123.718 149.43C129.786 149.43 128.775 152.108 128.775 152.108C128.775 152.108 119.112 156.518 103.783 154.156Z" fill="black"/>
<path opacity="0.1" d="M88.0698 119.257L82.5493 119.932C82.3761 119.932 82.2164 120.177 82.123 120.526C83.3371 122.764 84.855 124.096 86.5047 124.096C87.0933 124.087 87.6697 123.922 88.1777 123.618L88.5979 121.007C88.7399 120.139 88.4588 119.209 88.0698 119.257Z" fill="black"/>
<path d="M84.2176 123.502C93.5247 123.502 101.07 115.788 101.07 106.273C101.07 96.7578 93.5247 89.0441 84.2176 89.0441C74.9106 89.0441 67.3657 96.7578 67.3657 106.273C67.3657 115.788 74.9106 123.502 84.2176 123.502Z" fill="#FDA57D"/>
<path opacity="0.1" d="M98.5532 96.518L97.6908 97.3133C97.3296 97.6514 97.0575 98.0772 96.8997 98.5513C96.742 99.0254 96.7036 99.5325 96.7881 100.026C96.8727 100.519 97.0774 100.983 97.3835 101.373C97.6895 101.764 98.087 102.07 98.5392 102.263C98.5392 102.263 90.9895 109.981 89.9398 111.414C88.8901 112.847 90.113 116.617 90.113 116.617C90.113 116.617 93.4497 122.899 75.895 121.461C75.895 121.461 64.3106 118.951 65.5386 102.977C65.6604 101.377 63.083 97.2278 70.806 95.0815C71.0373 92.8393 71.9452 90.7262 73.4037 89.035C74.8621 87.3438 76.7991 86.1583 78.946 85.6428C81.9315 84.8837 85.015 84.6073 88.0842 84.8237C90.9439 85.0803 93.6056 86.4237 95.5438 88.5887C97.482 90.7537 98.5558 93.583 98.5532 96.518Z" fill="black"/>
<path d="M98.9184 95.5789C98.9184 95.5789 100.709 96.1441 100.793 102.148L98.2484 101.971C98.2484 101.971 92.3623 118.069 92.9809 115.97C95.2633 108.251 90.6986 109.689 89.6443 111.126C88.5899 112.564 89.8175 116.33 89.8175 116.33C89.8175 116.33 93.1542 122.611 75.5995 121.173C75.5995 121.173 64.015 118.663 65.243 102.689C65.3649 101.089 62.7875 96.9399 70.5105 94.7936C70.7399 92.5526 71.6451 90.44 73.1007 88.7481C74.5562 87.0562 76.4903 85.8688 78.635 85.3502C81.6206 84.591 84.704 84.3146 87.7733 84.531C93.7168 85.0432 98.9184 89.5038 98.9184 95.5789Z" fill="#72351C"/>
<path d="M17.3899 332.689C17.3899 332.689 10.0311 307.149 18.7906 288.35C22.5024 280.491 23.6214 271.613 21.9798 263.049C21.1681 258.989 19.9943 255.013 18.4731 251.172" stroke="#D0CDE1" stroke-width="2" stroke-miterlimit="10"/>
<path d="M23.8988 239.276C23.8988 242.407 18.3564 251.482 18.3564 251.482C18.3564 251.482 12.814 242.412 12.814 239.276C12.814 237.772 13.3981 236.33 14.438 235.267C15.4778 234.204 16.8882 233.607 18.3587 233.607C19.8293 233.607 21.2396 234.204 22.2795 235.267C23.3193 236.33 23.9035 237.772 23.9035 239.276H23.8988Z" fill="#E6E6E6"/>
<path d="M33.5223 256.614C31.86 259.239 22.3813 263.775 22.3813 263.775C22.3813 263.775 22.5541 253.077 24.2164 250.446C25.0157 249.185 26.2726 248.299 27.7104 247.985C29.1482 247.671 30.6493 247.953 31.8833 248.771C33.1174 249.588 33.9833 250.873 34.2907 252.343C34.598 253.813 34.3216 255.347 33.5223 256.609V256.614Z" fill="#E6E6E6"/>
<path d="M32.6584 286.245C29.9269 287.677 19.5004 286.679 19.5004 286.679C19.5004 286.679 24.9307 277.532 27.6669 276.119C28.9796 275.443 30.5015 275.327 31.8977 275.797C33.294 276.268 34.4502 277.286 35.1121 278.628C35.774 279.97 35.8874 281.526 35.4272 282.954C34.967 284.381 33.9711 285.563 32.6584 286.24V286.245Z" fill="#E6E6E6"/>
<path d="M27.4148 308.595C24.9541 310.457 14.5182 311.297 14.5182 311.297C14.5182 311.297 18.361 301.344 20.8217 299.482C21.407 299.04 22.0718 298.719 22.7782 298.539C23.4846 298.36 24.2188 298.324 24.9387 298.434C25.6587 298.544 26.3504 298.798 26.9743 299.181C27.5982 299.565 28.1422 300.07 28.5751 300.669C29.008 301.267 29.3214 301.947 29.4973 302.669C29.6733 303.391 29.7084 304.142 29.6007 304.878C29.4929 305.614 29.2445 306.321 28.8694 306.959C28.4943 307.597 28.0001 308.153 27.4148 308.595Z" fill="#E6E6E6"/>
<path d="M10.2738 264.39C12.4684 266.572 22.7034 268.83 22.7034 268.83C22.7034 268.83 20.196 258.437 18.0015 256.261C16.9379 255.273 15.541 254.747 14.1052 254.792C12.6694 254.838 11.3068 255.451 10.3048 256.503C9.30275 257.556 8.73947 258.965 8.73369 260.433C8.72791 261.902 9.28009 263.315 10.2738 264.376V264.39Z" fill="#E6E6E6"/>
<path d="M4.46996 290.608C7.20149 292.04 17.628 291.042 17.628 291.042C17.628 291.042 12.1976 281.896 9.46143 280.483C8.81146 280.148 8.10329 279.947 7.37738 279.892C6.65146 279.836 5.922 279.928 5.23066 280.161C4.53931 280.394 3.89959 280.763 3.34807 281.249C2.79654 281.735 2.34399 282.327 2.01625 282.991C1.6885 283.656 1.49198 284.38 1.43792 285.122C1.38385 285.864 1.47331 286.61 1.70116 287.317C1.92901 288.024 2.29079 288.678 2.76586 289.241C3.24093 289.805 3.81999 290.268 4.46996 290.603V290.608Z" fill="#E6E6E6"/>
<path d="M2.24736 316.878C4.70807 318.74 15.1439 319.58 15.1439 319.58C15.1439 319.58 11.3011 309.627 8.84039 307.765C8.25511 307.322 7.59029 307.002 6.8839 306.822C6.1775 306.642 5.44338 306.606 4.72341 306.716C4.00345 306.826 3.31174 307.08 2.68781 307.464C2.06388 307.847 1.51995 308.353 1.08705 308.951C0.654142 309.549 0.340735 310.229 0.16476 310.951C-0.0112149 311.674 -0.046323 312.424 0.0614224 313.16C0.169168 313.896 0.417674 314.603 0.792737 315.241C1.1678 315.879 1.66208 316.435 2.24736 316.878Z" fill="#E6E6E6"/>
<path d="M423.803 332.894H0.029541V333.671H423.803V332.894Z" fill="#2F2E41"/>
</g>
<defs>
<clipPath id="clip0">
<rect width="424" height="334" fill="white"/>
</clipPath>
</defs>
</svg>
