<svg width="41" height="30" viewBox="0 0 41 30" fill="none" xmlns="http://www.w3.org/2000/svg">
<path d="M36.0356 0H4.50444C3.30979 0 2.16407 0.474574 1.31932 1.31932C0.474574 2.16407 0 3.30979 0 4.50444L0 24.7744C0 25.9691 0.474574 27.1148 1.31932 27.9596C2.16407 28.8043 3.30979 29.2789 4.50444 29.2789H36.0356C37.2302 29.2789 38.3759 28.8043 39.2207 27.9596C40.0654 27.1148 40.54 25.9691 40.54 24.7744V4.50444C40.54 3.30979 40.0654 2.16407 39.2207 1.31932C38.3759 0.474574 37.2302 0 36.0356 0V0Z" fill="#DA251D"/>
<path d="M22.244 12.4289L20.2699 6.35355L18.2959 12.4289H11.9086L17.0763 16.1822L15.1022 22.2576L20.2699 18.5032L25.4377 22.2576L23.4636 16.1822L28.6313 12.4289H22.244Z" fill="#FFFF00"/>
</svg>
